<svg width="22" height="24" viewBox="0 0 22 24" fill="none" xmlns="http://www.w3.org/2000/svg">
<g clip-path="url(#clip0_541_186)">
<path d="M20.1289 20.9986C19.0035 22.4865 17.8103 23.9384 15.9934 23.9624C14.1766 23.9984 13.5935 23.0145 11.5326 23.0145C9.45808 23.0145 8.82082 23.9384 7.09885 23.9984C5.32264 24.0584 3.98032 22.4145 2.84137 20.9626C0.522815 17.9988 -1.25339 12.5392 1.13296 8.86741C2.31258 7.04353 4.42776 5.89161 6.7192 5.85561C8.45473 5.83161 10.1089 6.89954 11.1801 6.89954C12.2376 6.89954 14.2444 5.61563 16.346 5.80761C17.2273 5.84361 19.695 6.11959 21.2814 8.18346C21.1594 8.25545 18.3391 9.71935 18.3662 12.7552C18.4069 16.3789 21.9593 17.5908 22 17.6028C21.9593 17.6868 21.4305 19.3307 20.1289 20.9986ZM12.3868 1.79988C13.3766 0.803947 15.0172 0.0479968 16.3731 0C16.5494 1.40391 15.9121 2.81981 14.963 3.82775C14.0274 4.84768 12.4817 5.63963 10.9631 5.53163C10.7597 4.15172 11.519 2.71182 12.3868 1.79988Z" fill="#B3B3B3"/>
</g>
<defs>
<clipPath id="clip0_541_186">
<rect width="22" height="24" fill="white"/>
</clipPath>
</defs>
</svg>
