<svg width="24" height="24" viewBox="0 0 24 24" fill="none" xmlns="http://www.w3.org/2000/svg">
<path d="M18 2H6C3.79086 2 2 3.79086 2 6V18C2 20.2091 3.79086 22 6 22H18C20.2091 22 22 20.2091 22 18V6C22 3.79086 20.2091 2 18 2ZM18 2L14 8M2 8H22M10 2L6 8M10 13.8028V16.1972C10 17.3953 11.3352 18.1099 12.3321 17.4453L14.1279 16.2481C15.0185 15.6543 15.0185 14.3457 14.1279 13.7519L12.332 12.5547C11.3352 11.8901 10 12.6047 10 13.8028Z" stroke="#A7A6A5" stroke-width="1.5" stroke-linejoin="round"/>
</svg>
