<svg width="24" height="24" viewBox="0 0 24 24" fill="none" xmlns="http://www.w3.org/2000/svg">
<path d="M22.6803 10.7078C22.9648 11.0627 23.1225 11.5238 23.1225 12.0004C23.1225 12.4787 22.9648 12.9381 22.6803 13.293C20.8803 15.4718 16.7831 19.7147 12.0003 19.7147C7.2174 19.7147 3.12026 15.4718 1.32026 13.293C1.03086 12.9246 0.874947 12.4689 0.877973 12.0004C0.877973 11.5238 1.03569 11.0627 1.32026 10.7078C3.12026 8.52899 7.2174 4.28613 12.0003 4.28613C16.7831 4.28613 20.8803 8.52899 22.6803 10.7078Z" stroke="#A7A6A5" stroke-width="1.5" stroke-linecap="round" stroke-linejoin="round"/>
<path d="M11.9999 15.4294C12.9092 15.4294 13.7812 15.0682 14.4242 14.4252C15.0672 13.7822 15.4284 12.9102 15.4284 12.0008C15.4284 11.0915 15.0672 10.2195 14.4242 9.57647C13.7812 8.93349 12.9092 8.57227 11.9999 8.57227C11.0905 8.57227 10.2185 8.93349 9.57549 9.57647C8.93251 10.2195 8.57129 11.0915 8.57129 12.0008C8.57129 12.9102 8.93251 13.7822 9.57549 14.4252C10.2185 15.0682 11.0905 15.4294 11.9999 15.4294Z" stroke="#A7A6A5" stroke-width="1.5" stroke-linecap="round" stroke-linejoin="round"/>
</svg>
